<svg width="16" height="16" viewBox="0 0 16 16" version="1.1" xmlns="http://www.w3.org/2000/svg" xmlns:xlink="http://www.w3.org/1999/xlink">
<title>accept-circular-button-outline</title>
<desc>Created using Figma</desc>
<g id="Canvas" transform="translate(-8636 -1319)">
<g id="accept-circular-button-outline">
<g id="Group">
<g id="Group">
<g id="Group">
<g id="Vector">
<use xlink:href="#path0_fill" transform="translate(8636.01 1319.01)" fill="#197AE3"/>
</g>
<g id="Vector">
<use xlink:href="#path1_fill" transform="translate(8636 1319)" fill="#197AE3"/>
</g>
</g>
<g id="Group">
<g id="Vector">
<use xlink:href="#path2_fill" transform="translate(8639.78 1323.92)" fill="#197AE3"/>
</g>
<g id="Vector">
<use xlink:href="#path3_fill" transform="translate(8639.77 1323.91)" fill="#197AE3"/>
</g>
</g>
</g>
</g>
</g>
</g>
<defs>
<path id="path0_fill" d="M 2.33916 13.6337C 3.07225 14.3667 3.92621 14.9424 4.87737 15.3447C 5.86275 15.7615 6.90876 15.9728 7.98639 15.9728C 9.064 15.9728 10.11 15.7615 11.0954 15.3447C 12.0466 14.9424 12.9005 14.3667 13.6337 13.6337C 14.3667 12.9005 14.9424 12.0466 15.3447 11.0954C 15.7615 10.11 15.9728 9.064 15.9728 7.98642C 15.9728 6.90875 15.7615 5.86274 15.3447 4.87739C 14.9424 3.92622 14.3667 3.07226 13.6337 2.33917C 12.9005 1.60607 12.0466 1.03039 11.0954 0.628098C 10.11 0.211298 9.064 -3.50384e-10 7.98639 -3.50384e-10C 6.90876 -3.50384e-10 5.86275 0.211326 4.87737 0.628098C 3.92621 1.03039 3.07225 1.6061 2.33916 2.33917C 1.60607 3.07224 1.03039 3.92622 0.628069 4.87736C 0.211325 5.86274 0 6.90875 0 7.98642C 0 9.06403 0.211325 10.11 0.628096 11.0954C 1.03039 12.0466 1.6061 12.9005 2.33916 13.6337ZM 7.98639 1.1659C 11.7533 1.1659 14.8069 4.21954 14.8069 7.98642C 14.8069 11.7533 11.7533 14.8069 7.98639 14.8069C 4.21953 14.8069 1.16589 11.7533 1.16589 7.98642C 1.16589 4.21954 4.21953 1.1659 7.98639 1.1659Z"/>
<path id="path1_fill" d="M 8 16C 6.92046 16 5.87268 15.7883 4.88567 15.3709C 3.93287 14.9678 3.07745 14.3912 2.34316 13.6569C 1.60882 12.9225 1.03216 12.0671 0.629185 11.1143C 0.211679 10.1272 0 9.07943 0 8.00003C 0 6.92059 0.211679 5.87276 0.629158 4.88566C 1.03213 3.93291 1.60882 3.07749 2.34313 2.34314C 3.07745 1.6088 3.9329 1.03213 4.88565 0.62916C 5.87274 0.211679 6.92054 1.29223e-12 7.99997 1.29223e-12C 9.07949 1.29223e-12 10.1273 0.211679 11.1143 0.629187C 12.067 1.03216 12.9225 1.60885 13.6568 2.34317C 14.3912 3.07757 14.9679 3.933 15.3708 4.88569C 15.7883 5.87278 16 6.92059 16 8.00003C 16 9.07943 15.7883 10.1272 15.3708 11.1143C 14.9679 12.0671 14.3912 12.9225 13.6568 13.6569C 12.9225 14.3912 12.0671 14.9678 11.1143 15.3709C 10.1273 15.7883 9.07948 16 8 16ZM 8 0.0272151C 6.92422 0.0272151 5.88 0.23816 4.89629 0.654225C 3.94678 1.05584 3.09424 1.63054 2.3624 2.36238C 1.63054 3.09425 1.05584 3.94677 0.654223 4.89625C 0.238159 5.87999 0.0272151 6.92424 0.0272151 8.00003C 0.0272151 9.07576 0.238159 10.12 0.654223 11.1038C 1.05584 12.0533 1.63054 12.9058 2.3624 13.6376C 3.09422 14.3694 3.94673 14.9441 4.89629 15.3458C 5.87989 15.7618 6.92413 15.9728 8 15.9728C 9.07587 15.9728 10.1201 15.7618 11.1037 15.3458C 12.0532 14.9441 12.9058 14.3694 13.6376 13.6376C 14.3695 12.9057 14.9442 12.0532 15.3457 11.1038C 15.7618 10.12 15.9728 9.07579 15.9728 8.00003C 15.9728 6.92424 15.7618 5.87999 15.3457 4.8963C 14.9442 3.94685 14.3695 3.09433 13.6376 2.36241C 12.9057 1.63057 12.0532 1.05587 11.1037 0.654252C 10.1201 0.23816 9.07581 0.0272151 8 0.0272151ZM 8 14.8341C 6.17455 14.8341 4.45834 14.1232 3.16756 12.8325C 1.87678 11.5416 1.16589 9.82548 1.16589 8.00003C 1.16589 6.17457 1.87675 4.45836 3.16756 3.16757C 4.45834 1.87678 6.17455 1.1659 8 1.1659C 9.82545 1.1659 11.5416 1.87678 12.8324 3.16757C 14.1232 4.45838 14.8341 6.17457 14.8341 8.00003C 14.8341 9.82548 14.1232 11.5417 12.8324 12.8325C 11.5416 14.1232 9.82542 14.8341 8 14.8341ZM 8 1.19311C 6.18182 1.19311 4.47247 1.90117 3.1868 3.18681C 1.90116 4.47248 1.19311 6.18184 1.19311 8.00003C 1.19311 9.81822 1.90116 11.5276 3.1868 12.8132C 4.47244 14.0988 6.18182 14.8069 8 14.8069C 9.81818 14.8069 11.5275 14.0988 12.8132 12.8132C 14.0988 11.5276 14.8069 9.81819 14.8069 8.00003C 14.8069 6.18184 14.0988 4.47245 12.8132 3.18681C 11.5275 1.90114 9.81818 1.19311 8 1.19311Z"/>
<path id="path2_fill" d="M 2.45006 5.986C 2.55938 6.09535 2.70765 6.15672 2.86225 6.15672C 3.01689 6.15672 3.16513 6.09532 3.27445 5.986L 8.26531 0.995152C 8.49297 0.767497 8.49297 0.398406 8.26531 0.170751C 8.03766 -0.0569033 7.66854 -0.0569306 7.44089 0.170751L 2.86225 4.74943L 0.995139 2.88228C 0.767485 2.6546 0.398394 2.6546 0.170741 2.88228C -0.0569133 3.10993 -0.0569133 3.47902 0.170741 3.70668L 2.45006 5.986Z"/>
<path id="path3_fill" d="M 2.87558 6.18396C 2.71624 6.18396 2.56642 6.12191 2.45375 6.00924L 0.174435 3.72992C -0.0581449 3.49731 -0.0581449 3.11885 0.174435 2.88625C 0.287105 2.77355 0.436924 2.7115 0.596268 2.7115C 0.755612 2.7115 0.905404 2.77355 1.0181 2.88625L 2.87561 4.74376L 7.44461 0.174721C 7.55728 0.0620231 7.7071 -1.29564e-07 7.86644 -1.29564e-07C 8.02576 -1.29564e-07 8.17558 0.0620503 8.28827 0.174721C 8.40097 0.287392 8.46302 0.437211 8.46302 0.596556C 8.46302 0.7559 8.40097 0.905693 8.28827 1.01839L 3.29742 6.00924C 3.18477 6.12191 3.03495 6.18396 2.87558 6.18396ZM 0.596268 2.73874C 0.44419 2.73874 0.30123 2.79796 0.193703 2.90552C -0.028263 3.12751 -0.028263 3.48868 0.193703 3.71068L 2.47302 5.99C 2.58054 6.09753 2.72351 6.15674 2.87558 6.15674C 3.02769 6.15674 3.17065 6.09753 3.27818 5.99L 8.26901 0.999149C 8.37653 0.891622 8.43578 0.748634 8.43578 0.596583C 8.43578 0.444532 8.37653 0.301517 8.26901 0.19399C 8.16148 0.0864353 8.01849 0.0272424 7.86642 0.0272424C 7.71434 0.0272424 7.57135 0.0864625 7.46382 0.19399L 2.87558 4.78227L 0.998833 2.90552C 0.891306 2.79796 0.748346 2.73874 0.596268 2.73874Z"/>
</defs>
</svg>
