<svg width="28" height="28" viewBox="0 0 28 28" xmlns="http://www.w3.org/2000/svg" xmlns:xlink="http://www.w3.org/1999/xlink"><title>gas-pipe</title><desc>Created using Figma</desc><use xlink:href="#a" fill="#FFF"/><use xlink:href="#b" transform="translate(10.73 16.333)" fill="#FFF"/><use xlink:href="#c" transform="translate(10.73 5.6)" fill="#FFF"/><use xlink:href="#d" transform="translate(18.2 5.6)" fill="#FFF"/><use xlink:href="#e" transform="translate(11.67 3.267)" fill="#FFF"/><use xlink:href="#f" transform="translate(14.47 1.867)" fill="#FFF"/><use xlink:href="#g" transform="translate(17.27 3.267)" fill="#FFF"/><use xlink:href="#h" transform="translate(12.85 4.64)" fill="#FFF"/><defs><path id="a" d="M27.533 19.6h-5.6v-2.8h5.6c.28 0 .467-.187.467-.467s-.187-.466-.467-.466h-5.6v-1.4c0-.28-.186-.467-.466-.467H17.22v-2.31A6.055 6.055 0 0 0 21 6.067 6.055 6.055 0 0 0 14.933 0a6.055 6.055 0 0 0-6.066 6.067A6.055 6.055 0 0 0 12.6 11.67V14H8.4c-.28 0-.467.187-.467.467v1.413C3.528 16.12 0 19.755 0 24.173v3.36c0 .28.187.467.467.467s.466-.187.466-.467v-3.36c0-3.92 3.127-7.14 7-7.373v2.707c-2.333.28-4.2 2.24-4.2 4.666v3.36c0 .28.187.467.467.467s.467-.187.467-.467v-3.36a3.746 3.746 0 0 1 3.266-3.703v1.463c0 .28.187.467.467.467h13.066c.28 0 .467-.187.467-.467v-1.4h5.6c.28 0 .467-.186.467-.466s-.187-.467-.467-.467zM16.28 11.02l-.082.02-.016.005c-.418.102-.84.154-1.263.155h-.05l-.097-.003a5.095 5.095 0 0 1-2.352-.66c.608-.787 1.537-1.204 2.513-1.204s1.906.417 2.513 1.204c-.365.207-.756.37-1.167.482zM9.8 6.066C9.8 3.22 12.133.933 14.933.933a5.12 5.12 0 0 1 5.134 5.134c0 1.578-.718 2.985-1.835 3.925a4.16 4.16 0 0 0-3.3-1.592 4.163 4.163 0 0 0-3.28 1.605A5.118 5.118 0 0 1 9.8 6.067zm3.733 5.905c.03.008.063.014.094.02a5.166 5.166 0 0 0 .206.042l.094.016a5.995 5.995 0 0 0 1.213.08 10.98 10.98 0 0 0 .24-.013c.015 0 .028-.002.042-.003a6.237 6.237 0 0 0 .91-.142V14h-2.8v-2.028zM21 21.467H8.867V14.933H21V21.467z"/><path id="b" d="M7.933 0H.467C.187 0 0 .187 0 .467v2.8c0 .28.187.466.467.466h7.466c.28 0 .467-.186.467-.466v-2.8C8.4.187 8.213 0 7.933 0zm-.466 2.8H.933V.933h6.534V2.8z"/><path id="c" d="M.933.467A.468.468 0 0 0 .467 0C.187 0 0 .187 0 .467s.187.466.467.466S.933.747.933.467z"/><path id="d" d="M.467.933c.28 0 .466-.186.466-.466A.468.468 0 0 0 .467 0C.187 0 0 .187 0 .467s.187.466.467.466z"/><path id="e" d="M.467.933c.28 0 .466-.186.466-.466A.468.468 0 0 0 .467 0C.187 0 0 .187 0 .467s.187.466.467.466z"/><path id="f" d="M.467.933c.28 0 .466-.186.466-.466A.468.468 0 0 0 .467 0C.187 0 0 .187 0 .467s.187.466.467.466z"/><path id="g" d="M.467.933c.28 0 .466-.186.466-.466A.468.468 0 0 0 .467 0C.187 0 0 .187 0 .467s.187.466.467.466z"/><path id="h" d="M1.706 2.64c.093.14.42.14.606.046.187-.14.234-.467.047-.654L.82.165C.68-.02.35-.068.164.12-.02.26-.068.584.12.77L1.705 2.64z"/></defs></svg>