<svg width="259" height="431" viewBox="0 0 259 431" version="1.1" xmlns="http://www.w3.org/2000/svg" xmlns:xlink="http://www.w3.org/1999/xlink">
    <style>
        #path0_fill:hover {
        <!--fill: #FF0000;-->
        }
    </style>
<title>Group 37</title>
<desc>Created using Figma</desc>
<g id="Canvas" transform="translate(-10166 -1659)">
<g id="Group 37">
<g id="Group 36">
<g id="Group 32">
<g id="Ellipse 4">
<use xlink:href="#path0_fill" transform="translate(10382 1659)" fill="#197AE3" fill-opacity="0.6"/>
<mask id="mask0_outline_ins">
<use xlink:href="#path0_fill" fill="white" transform="translate(10382 1659)"/>
</mask>
<g mask="url(#mask0_outline_ins)">
<use xlink:href="#path1_stroke_2x" transform="translate(10382 1659)" fill="#197AE3"/>
</g>
</g>
<g id="1">
<use xlink:href="#path2_fill" transform="translate(10399 1670)" fill="#FFFFFF"/>
</g>
</g>
<g id="1">
<use xlink:href="#path3_fill" transform="translate(10399 1670)" fill="#FFFFFF"/>
</g>
</g>
<g id="Group 28">
<g id="Ellipse 4.1">
<use xlink:href="#path0_fill" transform="translate(10347 1739)" fill="#197AE3" fill-opacity="0.6"/>
<mask id="mask1_outline_ins">
<use xlink:href="#path0_fill" fill="white" transform="translate(10347 1739)"/>
</mask>
<g mask="url(#mask1_outline_ins)">
<use xlink:href="#path1_stroke_2x" transform="translate(10347 1739)" fill="#197AE3"/>
</g>
</g>
<g id="2">
<use xlink:href="#path4_fill" transform="translate(10363 1750)" fill="#FFFFFF"/>
</g>
</g>
<g id="Group 29">
<g id="Ellipse 4.2">
<use xlink:href="#path0_fill" transform="translate(10296 1812)" fill="#197AE3" fill-opacity="0.6"/>
<mask id="mask2_outline_ins">
<use xlink:href="#path0_fill" fill="white" transform="translate(10296 1812)"/>
</mask>
<g mask="url(#mask2_outline_ins)">
<use xlink:href="#path1_stroke_2x" transform="translate(10296 1812)" fill="#197AE3"/>
</g>
</g>
<g id="3">
<use xlink:href="#path5_fill" transform="translate(10312 1823)" fill="#FFFFFF"/>
</g>
</g>
<g id="Group 30">
<g id="Ellipse 4.3">
<use xlink:href="#path0_fill" transform="translate(10370 1889)" fill="#197AE3" fill-opacity="0.6"/>
<mask id="mask3_outline_ins">
<use xlink:href="#path0_fill" fill="white" transform="translate(10370 1889)"/>
</mask>
<g mask="url(#mask3_outline_ins)">
<use xlink:href="#path1_stroke_2x" transform="translate(10370 1889)" fill="#197AE3"/>
</g>
</g>
<g id="4">
<use xlink:href="#path6_fill" transform="translate(10385 1900)" fill="#FFFFFF"/>
</g>
</g>
<g id="Group 31">
<g id="Ellipse 4.5">
<use xlink:href="#path0_fill" transform="translate(10166 1734)" fill="#197AE3" fill-opacity="0.6"/>
<mask id="mask4_outline_ins">
<use xlink:href="#path0_fill" fill="white" transform="translate(10166 1734)"/>
</mask>
<g mask="url(#mask4_outline_ins)">
<use xlink:href="#path1_stroke_2x" transform="translate(10166 1734)" fill="#197AE3"/>
</g>
</g>
<g id="6">
<use xlink:href="#path7_fill" transform="translate(10181 1745)" fill="#FFFFFF"/>
</g>
</g>
<g id="Group 34">
<g id="Ellipse 4.6">
<use xlink:href="#path0_fill" transform="translate(10174 1967)" fill="#197AE3" fill-opacity="0.6"/>
<mask id="mask5_outline_ins">
<use xlink:href="#path0_fill" fill="white" transform="translate(10174 1967)"/>
</mask>
<g mask="url(#mask5_outline_ins)">
<use xlink:href="#path1_stroke_2x" transform="translate(10174 1967)" fill="#197AE3"/>
</g>
</g>
<g id="7">
<use xlink:href="#path8_fill" transform="translate(10189 1978)" fill="#FFFFFF"/>
</g>
</g>
<g id="Group 35">
<g id="Ellipse 4.7">
<use xlink:href="#path0_fill" transform="translate(10259 2047)" fill="#197AE3" fill-opacity="0.6"/>
<mask id="mask6_outline_ins">
<use xlink:href="#path0_fill" fill="white" transform="translate(10259 2047)"/>
</mask>
<g mask="url(#mask6_outline_ins)">
<use xlink:href="#path1_stroke_2x" transform="translate(10259 2047)" fill="#197AE3"/>
</g>
</g>
<g id="8">
<use xlink:href="#path9_fill" transform="translate(10274 2058)" fill="#FFFFFF"/>
</g>
</g>
<g id="Group 26">
<g id="Ellipse 4.4">
<use xlink:href="#path0_fill" transform="translate(10274 1938)" fill="#197AE3" fill-opacity="0.6"/>
<mask id="mask7_outline_ins">
<use xlink:href="#path0_fill" fill="white" transform="translate(10274 1938)"/>
</mask>
<g mask="url(#mask7_outline_ins)">
<use xlink:href="#path1_stroke_2x" transform="translate(10274 1938)" fill="#197AE3"/>
</g>
</g>
<g id="5">
<use xlink:href="#path10_fill" transform="translate(10289 1949)" fill="#FFFFFF"/>
</g>
</g>
</g>
</g>
<defs>
<path id="path0_fill" d="M 43 21.5C 43 33.3741 33.3741 43 21.5 43C 9.62588 43 0 33.3741 0 21.5C 0 9.62588 9.62588 0 21.5 0C 33.3741 0 43 9.62588 43 21.5Z"/>
<path id="path1_stroke_2x" d="M 42 21.5C 42 32.8218 32.8218 42 21.5 42L 21.5 44C 33.9264 44 44 33.9264 44 21.5L 42 21.5ZM 21.5 42C 10.1782 42 1 32.8218 1 21.5L -1 21.5C -1 33.9264 9.07359 44 21.5 44L 21.5 42ZM 1 21.5C 1 10.1782 10.1782 1 21.5 1L 21.5 -1C 9.07359 -1 -1 9.07359 -1 21.5L 1 21.5ZM 21.5 1C 32.8218 1 42 10.1782 42 21.5L 44 21.5C 44 9.07359 33.9264 -1 21.5 -1L 21.5 1Z"/>
<path id="path2_fill" d="M 4.752 2.04L 7.15 2.04L 7.15 14.162L 9.658 14.162L 9.658 17L 1.122 17L 1.122 14.162L 3.938 14.162L 3.938 5.34L 1.122 6.396L 1.122 3.426L 4.752 2.04Z"/>
<path id="path3_fill" d="M 4.752 2.04L 7.15 2.04L 7.15 14.162L 9.658 14.162L 9.658 17L 1.122 17L 1.122 14.162L 3.938 14.162L 3.938 5.34L 1.122 6.396L 1.122 3.426L 4.752 2.04Z"/>
<path id="path4_fill" d="M 1.386 3.316C 2.86733 2.26 4.58333 1.732 6.534 1.732C 8.13267 1.732 9.438 2.106 10.45 2.854C 11.4767 3.602 11.99 4.702 11.99 6.154C 11.99 7.28333 11.6233 8.25133 10.89 9.058C 10.1713 9.85 9.18867 10.6127 7.942 11.346C 6.47533 12.2113 5.57333 12.798 5.236 13.106C 4.84 13.4873 4.63467 13.8467 4.62 14.184L 12.1 14.162L 12.1 17L 0.88 17L 0.88 15.526C 0.88 14.7193 0.997333 13.9933 1.232 13.348C 1.48133 12.7027 1.87733 12.1233 2.42 11.61C 2.97733 11.0967 3.43933 10.7153 3.806 10.466C 4.17267 10.202 4.73 9.85 5.478 9.41C 5.522 9.38067 5.55867 9.35867 5.588 9.344C 5.61733 9.32933 5.654 9.30733 5.698 9.278C 5.742 9.24867 5.77867 9.22667 5.808 9.212C 5.896 9.15333 6.07933 9.05067 6.358 8.904C 6.65133 8.74267 6.842 8.63267 6.93 8.574C 7.018 8.51533 7.172 8.42 7.392 8.288C 7.612 8.14133 7.766 8.03133 7.854 7.958C 7.942 7.87 8.052 7.75267 8.184 7.606C 8.33067 7.45933 8.43333 7.32733 8.492 7.21C 8.55067 7.09267 8.602 6.95333 8.646 6.792C 8.69 6.63067 8.712 6.462 8.712 6.286C 8.712 5.74333 8.492 5.33267 8.052 5.054C 7.612 4.76067 7.00333 4.614 6.226 4.614C 4.554 4.614 2.94067 5.208 1.386 6.396L 1.386 3.316Z"/>
<path id="path5_fill" d="M 11.594 5.868C 11.594 6.63067 11.3887 7.298 10.978 7.87C 10.582 8.42733 10.032 8.83067 9.328 9.08C 10.164 9.32933 10.8533 9.77667 11.396 10.422C 11.9387 11.0527 12.21 11.8813 12.21 12.908C 12.21 13.6707 12.0413 14.3453 11.704 14.932C 11.3813 15.504 10.934 15.9587 10.362 16.296C 9.79 16.6333 9.152 16.8827 8.448 17.044C 7.75867 17.22 7.018 17.308 6.226 17.308C 4.39267 17.308 2.662 16.9707 1.034 16.296L 1.034 13.238C 2.47133 14.0447 4.114 14.4333 5.962 14.404C 6.886 14.404 7.634 14.2427 8.206 13.92C 8.778 13.5973 9.064 13.106 9.064 12.446C 9.064 11.2873 8.19867 10.708 6.468 10.708L 4.004 10.708L 4.026 7.892L 6.094 7.914C 6.842 7.914 7.42133 7.782 7.832 7.518C 8.25733 7.23933 8.47 6.84333 8.47 6.33C 8.47 5.78733 8.23533 5.36933 7.766 5.076C 7.29667 4.768 6.61467 4.614 5.72 4.614C 4.23867 4.614 2.76467 5.06133 1.298 5.956L 1.298 2.898C 2.73533 2.12067 4.36333 1.732 6.182 1.732C 7.79533 1.732 9.10067 2.09133 10.098 2.81C 11.0953 3.52867 11.594 4.548 11.594 5.868Z"/>
<path id="path6_fill" d="M 8.206 2.04L 11.484 2.04L 11.484 11.522L 13.75 11.522L 13.75 14.272L 11.484 14.272L 11.484 17L 8.338 17L 8.338 14.272L 0.484 14.272L 0.484 11.544L 8.206 2.04ZM 8.338 11.522L 8.338 6.066L 3.916 11.522L 8.338 11.522Z"/>
<path id="path7_fill" d="M 4.224 8.332C 5.48533 7.65733 6.82 7.32 8.228 7.32C 9.66533 7.32 10.89 7.74533 11.902 8.596C 12.9287 9.44667 13.442 10.6347 13.442 12.16C 13.442 13.788 12.892 15.0567 11.792 15.966C 10.692 16.8607 9.33533 17.308 7.722 17.308C 3.20467 17.308 0.946 14.712 0.946 9.52C 0.946 8.2 1.13667 7.034 1.518 6.022C 1.89933 4.99533 2.42 4.18133 3.08 3.58C 3.74 2.964 4.488 2.502 5.324 2.194C 6.16 1.886 7.06933 1.732 8.052 1.732C 9.47467 1.732 10.846 2.04 12.166 2.656L 12.166 5.56C 11.0953 4.856 9.87067 4.504 8.492 4.504C 5.984 4.504 4.56133 5.78 4.224 8.332ZM 4.224 10.994C 4.37067 12.314 4.71533 13.2527 5.258 13.81C 5.80067 14.3527 6.534 14.624 7.458 14.624C 8.25 14.624 8.89533 14.4333 9.394 14.052C 9.89267 13.6707 10.142 13.0913 10.142 12.314C 10.142 10.818 9.16667 10.07 7.216 10.07C 6.16 10.07 5.16267 10.378 4.224 10.994Z"/>
<path id="path8_fill" d="M 0.55 2.018L 12.056 2.018L 12.056 4.394L 5.918 17L 2.354 17L 8.272 4.856L 0.55 4.856L 0.55 2.018Z"/>
<path id="path9_fill" d="M 1.452 5.868C 1.452 4.75333 1.936 3.78533 2.904 2.964C 3.872 2.14267 5.30933 1.732 7.216 1.732C 9.02 1.732 10.4353 2.15733 11.462 3.008C 12.4887 3.844 13.0093 4.82667 13.024 5.956C 13.0387 7.30533 12.408 8.45667 11.132 9.41C 12.76 10.2167 13.574 11.3973 13.574 12.952C 13.574 14.1693 13.046 15.2033 11.99 16.054C 10.9487 16.89 9.372 17.308 7.26 17.308C 5.16267 17.308 3.57867 16.8753 2.508 16.01C 1.43733 15.1447 0.902 14.0887 0.902 12.842C 0.902 12.094 1.11467 11.39 1.54 10.73C 1.96533 10.0553 2.53 9.50533 3.234 9.08C 2.046 8.27333 1.452 7.20267 1.452 5.868ZM 7.59 10.84C 7.38467 10.7667 7.02533 10.6493 6.512 10.488C 6.01333 10.3267 5.632 10.1947 5.368 10.092C 4.56133 10.7667 4.17267 11.5513 4.202 12.446C 4.21667 13.1207 4.49533 13.6707 5.038 14.096C 5.59533 14.5067 6.41667 14.712 7.502 14.712C 8.30867 14.712 8.976 14.558 9.504 14.25C 10.032 13.942 10.296 13.5387 10.296 13.04C 10.296 12.7907 10.2447 12.5633 10.142 12.358C 10.0393 12.1527 9.922 11.9913 9.79 11.874C 9.658 11.742 9.44533 11.61 9.152 11.478C 8.87333 11.3313 8.63867 11.2213 8.448 11.148C 8.272 11.0747 7.986 10.972 7.59 10.84ZM 9.856 6.198C 9.856 5.65533 9.614 5.208 9.13 4.856C 8.66067 4.504 7.97867 4.328 7.084 4.328C 6.32133 4.328 5.71267 4.482 5.258 4.79C 4.818 5.08333 4.598 5.45 4.598 5.89C 4.598 6.13933 4.65667 6.374 4.774 6.594C 4.89133 6.79933 5.016 6.968 5.148 7.1C 5.28 7.232 5.5 7.37133 5.808 7.518C 6.116 7.65 6.358 7.75267 6.534 7.826C 6.71 7.88467 7.00333 7.98 7.414 8.112C 7.57533 8.156 7.81 8.22933 8.118 8.332C 8.44067 8.42 8.668 8.47867 8.8 8.508C 9.53333 7.77467 9.88533 7.00467 9.856 6.198Z"/>
<path id="path10_fill" d="M 1.958 2.018L 11.462 2.018L 11.462 4.856L 4.928 4.834L 4.73 7.76C 5.434 7.61333 6.07933 7.54 6.666 7.54C 8.27933 7.54 9.592 7.92867 10.604 8.706C 11.6307 9.48333 12.144 10.686 12.144 12.314C 12.144 13.9567 11.5353 15.2033 10.318 16.054C 9.10067 16.89 7.59733 17.308 5.808 17.308C 3.98933 17.308 2.38333 16.9707 0.99 16.296L 0.99 13.238C 2.23667 14.03 3.718 14.426 5.434 14.426C 6.46067 14.426 7.282 14.2427 7.898 13.876C 8.52867 13.5093 8.844 12.974 8.844 12.27C 8.844 10.8033 7.62667 10.07 5.192 10.07C 3.872 10.07 2.618 10.2827 1.43 10.708L 1.958 2.018Z"/>
</defs>
</svg>
